<svg enable-background="new 0 0 856.773 329.17" height="329.17" viewBox="0 0 856.773 329.17" width="856.773" xmlns="http://www.w3.org/2000/svg"><path d="m38.246 235.336h-38.246l26.394-142.183h60.897c16.516 0 28.396 4.126 35.651 12.438 7.227 8.293 9.452 19.99 6.653 35.081-2.812 15.087-9.353 26.773-19.691 35.068-10.328 8.309-23.745 12.457-40.266 12.457h-22.65zm14.291-76.939h12.692c14.037 0 22.165-5.911 24.361-17.725 2.19-11.83-3.734-17.729-17.791-17.729h-12.684z" fill="#f68d2e"/><path d="m243.981 235.336h-47.626l-26.331-54.689-10.163 54.689h-38.245l26.391-142.184h59.525c8.202 0 15.142 1.158 20.822 3.476 5.678 2.333 10.138 5.503 13.358 9.528 3.225 4.027 5.335 8.674 6.385 13.952 1.037 5.277 1.007 10.933-.127 16.979-2.002 10.821-6.332 19.581-12.973 26.299-6.653 6.725-15.472 11.298-26.465 13.667zm-69.51-78.638h7.211c7.564 0 13.634-1.514 18.219-4.523 4.59-3.005 7.415-7.348 8.466-13.016 1.046-5.656-.162-9.987-3.64-13.021-3.458-3.018-8.971-4.515-16.512-4.515h-7.234z" fill="#f68d2e"/><g fill="#8c8c8c"><path d="m665.675 93.786-9.223 52.367-15.578 88.54h39.19l17.082-97.214 7.687-43.693z"/><path d="m656.929 93.786h-115.495-.854-115.536l-6.204 34.665h52.698l-46.966 67.077-27.42 39.165h115.52.567 115.494l6.229-34.684h-52.691zm-143.507 139.809 6.021-33.586h-52.699l73.547-104.612-5.938 33.054h52.694z"/><path d="m842.617 108.44c-.457-.574-.943-1.073-1.42-1.641-9.751-11.874-22.62-18.817-38.568-20.796-3.194-.396-6.463-.649-9.867-.649-3.483 0-6.833.253-10.183.649-17.614 2.075-33.821 9.559-48.569 22.572-8.741 7.716-15.686 16.221-20.828 25.484-5.179 9.368-8.539 19.533-10.03 30.453-3.007 21.795 2.094 40.362 15.357 55.669 13.245 15.292 30.661 22.953 52.268 22.953 20.641 0 39.054-7.883 55.217-23.662l-31.55-19.732c-5.836 3.211-12.018 4.8-18.619 4.8-7.122 0-13.656-2.302-19.547-6.91-5.927-4.608-9.948-10.102-11.997-16.485h107.34c.963-2.268 2.365-7.8 4.229-16.632 3.026-21.948-1.378-40.67-13.233-56.073zm-93.807 39.733c7.7-16.144 20.648-24.235 38.864-24.235 7.7 0 13.953 2.166 18.745 6.486 4.797 4.31 7.825 10.251 9.158 17.749z"/></g><path d="m722.055 28.244c2.002-1.616.913-4.87-1.669-4.955l-19.886-.627c-1.115-.04-2.112-.749-2.525-1.818l-7.048-18.601c-.417-1.127-1.393-1.65-2.407-1.735-.063 0-.126-.061-.192-.061-1.11.02-2.188.617-2.616 1.846l-6.72 18.718c-.4 1.041-1.397 1.786-2.491 1.837l-19.905.954c-2.577.105-3.616 3.369-1.587 4.963l15.735 12.22c.896.679 1.296 1.833.973 2.912l-5.222 19.216c-.674 2.471 2.094 4.476 4.244 3.029l16.461-11.18c.407-.275.864-.37 1.32-.416.61-.062 1.223.036 1.782.38l16.645 10.93c2.143 1.411 4.902-.62 4.216-3.088l-5.562-19.145c-.336-1.075.037-2.223.916-2.943z" fill="#f68d2e"/><path d="m409.338 132.88c-4.041-9.433-9.655-17.659-16.884-24.688-7.214-7.031-15.841-12.521-25.855-16.49-10.017-3.963-20.951-5.953-32.794-5.953-11.964 0-22.931 1.99-32.876 5.953-9.953 3.969-18.512 9.459-25.667 16.49-7.155 7.029-12.756 15.255-16.78 24.688-4.031 9.435-6.055 19.616-6.055 30.539 0 10.932 2.023 21.107 6.055 30.545 4.024 9.43 9.625 17.663 16.78 24.688 7.155 7.027 15.714 12.52 25.667 16.492 5.214 2.078 10.879 3.26 16.684 4.142v-38.44c-4.879-2.009-9.191-4.768-12.88-8.34-3.775-3.65-6.77-7.935-8.977-12.881-2.216-4.949-3.322-10.351-3.322-16.205 0-5.852 1.106-11.254 3.322-16.201 2.207-4.938 5.201-9.235 8.977-12.876 3.767-3.638 8.16-6.471 13.171-8.491 5.01-2.013 10.306-3.025 15.901-3.025 5.588 0 10.903 1.012 15.906 3.025 5.02 2.021 9.441 4.854 13.277 8.491 3.83 3.641 6.858 7.938 9.071 12.876 2.213 4.947 3.325 10.35 3.325 16.201 0 5.854-1.112 11.256-3.325 16.205-2.213 4.946-5.241 9.23-9.071 12.881-3.704 3.516-7.979 6.229-12.781 8.23v38.516c5.678-.895 11.223-2.076 16.392-4.107 10.015-3.973 18.642-9.465 25.855-16.492 7.229-7.024 12.843-15.258 16.884-24.688 4.034-9.438 6.051-19.613 6.051-30.545 0-10.924-2.017-21.105-6.051-30.54z" fill="#f68d2e"/><path d="m344.993 154.084v-19.397c0-3.054 2.473-5.541 5.538-5.541 3.049 0 5.531 2.487 5.531 5.541v19.397z" fill="#8c8c8c"/><path d="m322.813 154.084v-19.397c0-3.054-2.467-5.541-5.528-5.541-3.057 0-5.539 2.487-5.539 5.541v19.397z" fill="#8c8c8c"/><path d="m364.372 156.85h-60.939c-1.532 0-2.771 1.242-2.771 2.766v5.543c0 1.537 1.238 2.776 2.771 2.776h2.771v5.54c0 11.538 7.239 21.078 17.293 25.232 1.607.667 3.12 1.553 4.873 1.908v6.764 10.413 8.972 10.424c0 3.055 2.474 5.539 5.536 5.539s5.538-2.484 5.538-5.539v-10.424-8.972-10.413-6.764c1.751-.355 3.261-1.241 4.871-1.908 10.046-4.154 17.289-13.694 17.289-25.232v-5.54h2.768c1.527 0 2.771-1.239 2.771-2.776v-5.543c.001-1.524-1.244-2.766-2.771-2.766z" fill="#8c8c8c"/></svg>