<svg enable-background="new 0 0 557.291 197.403" height="197.403" viewBox="0 0 557.291 197.403" width="557.291" xmlns="http://www.w3.org/2000/svg"><path d="m470.47 64.878c-.274-.349-.573-.652-.861-.997-5.927-7.22-13.75-11.44-23.446-12.642-1.94-.241-3.93-.395-5.999-.395-2.118 0-4.153.154-6.191.395-10.706 1.261-20.559 5.809-29.525 13.721-5.314 4.691-9.535 9.861-12.661 15.494-3.149 5.694-5.192 11.873-6.099 18.511-1.828 13.251 1.275 24.538 9.338 33.844 8.051 9.295 18.638 13.953 31.771 13.953 12.551 0 23.744-4.791 33.569-14.384l-19.18-11.995c-3.55 1.951-7.305 2.917-11.318 2.917-4.329 0-8.304-1.4-11.886-4.201-3.602-2.802-6.045-6.141-7.29-10.022h65.254c.585-1.379 1.438-4.742 2.57-10.112 1.84-13.34-.838-24.722-8.046-34.087zm-57.027 24.156c4.681-9.815 12.552-14.733 23.627-14.733 4.683 0 8.483 1.316 11.395 3.943 2.919 2.62 4.757 6.231 5.57 10.79z" fill="#8c8c8c"/><path d="m278.53 136.121v11.117c0 4.149-2.212 7.676-5.296 8.985v3.719c0 5.264-3.557 9.53-7.944 9.53h-26.479c-4.388 0-7.944-4.266-7.944-9.53v-3.719c-3.085-1.31-5.296-4.836-5.296-8.985v-11.117c0-2.631 1.778-4.764 3.972-4.764h45.016c2.192 0 3.971 2.133 3.971 4.764z"/><path d="m252.05 0c-32.171 0-58.256 26.084-58.256 58.256 0 33.674 17.112 30.299 29.961 63.775 1.174 3.062 4.127 5.073 7.406 5.073h41.777c3.278 0 6.231-2.011 7.406-5.073 12.85-33.476 29.961-30.101 29.961-63.775.001-32.172-26.084-58.256-58.255-58.256zm18.125 119.063h-36.25c-16.832-38.422-31.218-31.661-31.218-61.679 0-27.268 22.071-49.343 49.343-49.343 27.268 0 49.343 22.071 49.343 49.343 0 29.916-14.412 23.314-31.218 61.679z" fill="#8c8c8c"/><path d="m279.301 53.56-35.232-11.61 4.25 11.683-24.024-.004-.183.079 35.232 11.609-4.25-11.683 24.024.004z" fill="#f68d2e"/><path d="m225.196 58.032c-1.511.387-2.363 1.92-1.896 3.408l16.082 51.138c.468 1.487 2.086 2.387 3.597 2l2.039-.523c1.511-.387 2.363-1.92 1.896-3.408l-16.082-51.137c-.468-1.487-2.086-2.387-3.597-2z"/><path d="m276.864 57.509c-1.511-.387-3.129.513-3.597 2l-16.082 51.138c-.468 1.487.385 3.021 1.896 3.408l2.039.523c1.511.387 3.129-.513 3.597-2l16.082-51.138c.468-1.487-.385-3.021-1.896-3.408z"/><path d="m44.672 124.121h37.917l-4.966 19.919h-77.391l60.424-70.555h-35.636l4.966-19.916h74.875z" fill="#f68d2e"/><path d="m124.13 124.121h37.918l-4.967 19.919h-77.39l60.424-70.555h-35.638l4.966-19.916h74.876z" fill="#f68d2e"/><g fill="#8c8c8c"><path d="m384.964 83.804c-3.782-6.639-9.674-9.959-17.669-9.959-3.525 0-6.941.64-10.257 1.918-3.324 1.284-6.337 3.023-9.046 5.219-2.709 2.204-5.06 4.824-7.058 7.862-1.997 3.041-3.436 6.321-4.313 9.836-.896 3.604-1.105 6.923-.622 9.961.48 3.042 1.54 5.682 3.185 7.918 1.639 2.242 3.783 4.004 6.424 5.278 2.638 1.284 5.676 1.924 9.119 1.924 7.517 0 15.072-3.198 22.669-9.601l-6.941 27.835-2.604.841c-3.924 1.279-7.518 2.221-10.788 2.822-3.267.599-6.422.897-9.46.897-6.238 0-11.926-1.181-17.055-3.539-5.134-2.359-9.348-5.68-12.639-9.961-3.29-4.277-5.521-9.36-6.697-15.239-1.175-5.878-.892-12.298.842-19.254 1.736-6.962 4.624-13.34 8.674-19.14 4.042-5.801 8.771-10.799 14.179-14.998 5.406-4.2 11.281-7.48 17.631-9.838 6.343-2.359 12.678-3.54 19.002-3.54 3.597 0 7.042.38 10.335 1.137 3.287.762 6.651 1.944 10.093 3.541z"/><path d="m495.59 144.04h-23.513l22.557-90.471h37.434c10.162 0 17.279 2.638 21.362 7.92 4.083 5.278 4.929 12.719 2.533 22.317-2.391 9.6-6.944 17.039-13.663 22.318-6.713 5.278-15.148 7.919-25.312 7.919h-13.918zm12.206-48.956h7.801c8.635 0 13.899-3.759 15.771-11.279 1.875-7.518-1.511-11.277-10.146-11.277h-7.801z"/></g></svg>